HIERARCHY
ROOT Hips
{
	OFFSET -3.958830 18.904000 13.208200
	CHANNELS 6 Xposition Yposition Zposition Zrotation Yrotation Xrotation 
	JOINT LHipJoint
	{
		OFFSET 0.000000 0.000000 0.000000
		CHANNELS 3 Zrotation Yrotation Xrotation
		JOINT LeftUpLeg
		{
			OFFSET 1.800000 -1.400000 0.085000
			CHANNELS 3 Zrotation Yrotation Xrotation
			JOINT LeftLeg
			{
				OFFSET 2.215000 -6.000000 0.000000
				CHANNELS 3 Zrotation Yrotation Xrotation
				JOINT LeftFoot
				{
					OFFSET 2.500000 -6.900000 0.000000
					CHANNELS 3 Zrotation Yrotation Xrotation
					JOINT LeftToeBase
					{
						OFFSET 0.200000 -0.500000 1.950000
						CHANNELS 3 Zrotation Yrotation Xrotation
						End Site
						{
							OFFSET 0.000000 0.000000 0.000000
						}
					}
				}
			}
		}
	}
	JOINT RHipJoint
	{
		OFFSET 0.000000 0.000000 0.000000
		CHANNELS 3 Zrotation Yrotation Xrotation
		JOINT RightUpLeg
		{
			OFFSET -1.800000 -1.400000 0.085000
			CHANNELS 3 Zrotation Yrotation Xrotation
			JOINT RightLeg
			{
				OFFSET -2.215000 -6.000000 0.000000
				CHANNELS 3 Zrotation Yrotation Xrotation
				JOINT RightFoot
				{
					OFFSET -2.500000 -6.900000 0.000000
					CHANNELS 3 Zrotation Yrotation Xrotation
					JOINT RightToeBase
					{
						OFFSET -0.200000 -0.500000 1.950000
						CHANNELS 3 Zrotation Yrotation Xrotation
						End Site
						{
							OFFSET 0.000000 0.000000 0.000000
						}
					}
				}
			}
		}
	}
	JOINT LowerBack
	{
		OFFSET 0.000000 0.000000 0.000000
		CHANNELS 3 Zrotation Yrotation Xrotation
		JOINT Spine
		{
			OFFSET -0.087000 1.940000 -0.288900
			CHANNELS 3 Zrotation Yrotation Xrotation
			JOINT Spine1
			{
				OFFSET 0.000000 1.950000 0.060000
				CHANNELS 3 Zrotation Yrotation Xrotation
				JOINT Neck
				{
					OFFSET 0.000000 0.000000 0.000000
					CHANNELS 3 Zrotation Yrotation Xrotation
					JOINT Neck1
					{
						OFFSET 0.000000 1.600000 0.340000
						CHANNELS 3 Zrotation Yrotation Xrotation
						JOINT Head
						{
							OFFSET 0.000000 1.667000 -0.240000
							CHANNELS 3 Zrotation Yrotation Xrotation
							End Site
							{
								OFFSET 0.000000 0.000000 0.000000
							}
						}
					}
				}
				JOINT LeftShoulder
				{
					OFFSET 0.000000 0.000000 0.000000
					CHANNELS 3 Zrotation Yrotation Xrotation
					JOINT LeftArm
					{
						OFFSET 2.700000 1.550000 -0.730000
						CHANNELS 3 Zrotation Yrotation Xrotation
						JOINT LeftForeArm
						{
							OFFSET 5.450000 0.000000 0.000000
							CHANNELS 3 Zrotation Yrotation Xrotation
							JOINT LeftHand
							{
								OFFSET 3.450000 0.000000 0.000000
								CHANNELS 3 Zrotation Yrotation Xrotation
								JOINT LeftHandIndex1
								{
									OFFSET 0.750000 0.000000 0.000000
									CHANNELS 3 Zrotation Yrotation Xrotation
									End Site
									{
										OFFSET 0.000000 0.000000 0.000000
									}
								}
							}
						}
					}
				}
				JOINT RightShoulder
				{
					OFFSET 0.000000 0.000000 0.000000
					CHANNELS 3 Zrotation Yrotation Xrotation
					JOINT RightArm
					{
						OFFSET -2.700000 1.550000 -0.730000
						CHANNELS 3 Zrotation Yrotation Xrotation
						JOINT RightForeArm
						{
							OFFSET -5.450000 0.000000 0.000000
							CHANNELS 3 Zrotation Yrotation Xrotation
							JOINT RightHand
							{
								OFFSET -3.450000 0.000000 0.000000
								CHANNELS 3 Zrotation Yrotation Xrotation
								JOINT RightHandIndex1
								{
									OFFSET -0.750000 0.000000 0.000000
									CHANNELS 3 Zrotation Yrotation Xrotation
									End Site
									{
										OFFSET 0.000000 0.000000 0.000000
									}
								}
							}
						}
					}
				}
			}
		}
	}
}
MOTION
Frames: 9
Frame Time: 0.016667
-2.142410 18.251540 -2.005230 -16.969427 25.894551 -37.035549 -15.186135 13.591865 1.559690 12.156251 -1.967427 0.387043 1.986225 8.040385 38.139140 0.133447 7.708907 1.903936 0.010610 -0.200690 -0.051330 18.493066 -8.923699 5.037437 -11.624099 5.734613 -54.062577 8.405255 -15.742275 53.226549 -1.083076 -8.751679 1.109781 -0.119090 0.350030 0.302090 -4.363302 -3.118510 -8.294792 23.605679 -20.182455 30.793215 -11.407985 -15.235016 8.658101 3.805503 0.925090 -13.909216 -3.000821 -1.092681 37.470716 1.634050 -3.671530 -16.851720 8.125100 -45.962689 1.820321 -6.471535 -38.039240 0.733727 178.538515 -71.645888 174.410048 -3.768369 3.538135 0.590220 0.050670 0.053590 0.065960 -17.377421 39.098815 7.281772 -5.244604 27.171251 -4.388450 -164.824202 49.382815 -165.628591 1.870216 -1.835402 -0.242790 0.211230 0.264970 -0.024670 
-2.062170 18.408430 -2.027950 -19.907364 23.768110 -36.224576 -15.133745 12.876043 0.980140 14.361557 -1.654704 1.136073 2.040338 7.606281 33.615668 -0.021305 7.156882 2.142098 -0.050250 -0.293670 -0.088480 18.780051 -8.201089 6.017475 -17.452003 5.486460 -62.642447 15.336631 -24.424842 61.505153 -1.769036 -11.697312 0.290336 -0.158080 0.425160 0.291510 -4.740232 -2.629948 -8.530417 32.762827 -23.548426 26.026266 -14.518625 -16.119671 7.290298 4.054906 0.280540 -13.645874 -4.033585 -0.530564 37.252171 1.684860 -3.725780 -15.152110 9.476676 -45.568124 2.119263 -7.018676 -37.838406 1.180131 -178.920674 -66.727272 169.542212 -3.808139 3.463332 0.599640 0.084070 0.011970 0.072610 -19.674059 38.399500 6.053128 -4.538601 28.401493 -4.353792 -163.687065 48.690366 -163.950306 1.847994 -1.820057 -0.294460 0.254730 0.297910 -0.022510 
-2.001590 18.589040 -2.054850 -19.202426 20.575500 -35.458600 -15.139182 12.597209 0.841425 14.460849 -0.818643 4.098612 1.337547 7.590610 29.074706 -0.008455 6.718958 2.296041 -0.061540 -0.313520 -0.065050 18.881458 -7.677985 6.630184 -20.868728 6.352147 -67.493462 16.468729 -29.947447 70.370435 -2.365087 -13.807082 -0.232584 -0.212670 0.337560 0.308610 -4.705922 -2.806296 -8.757334 36.161450 -24.729988 26.193961 -15.016282 -15.821055 5.710677 4.653934 -0.308432 -13.994389 -5.251575 0.140953 38.622903 -0.371920 -2.239310 -16.139990 9.527697 -45.057591 2.622710 -5.208315 -36.836681 1.503703 179.124375 -61.524841 172.350752 -3.787121 3.506616 0.633340 0.030930 0.066620 0.042450 -21.011078 38.518141 5.229564 -5.862588 27.793371 -6.239490 -160.978597 50.137885 -159.386167 1.885011 -1.858587 -0.252890 0.185780 0.287440 -0.037990 
-1.927060 18.771800 -2.088360 -19.501460 19.953482 -35.184516 -15.165182 12.337942 0.736265 14.458552 -0.564285 5.929135 1.037323 7.184067 25.021569 0.073956 6.252140 2.475830 -0.073870 -0.291900 -0.114160 18.954689 -7.210231 7.095116 -25.855103 3.737619 -70.542015 19.459291 -37.094092 76.101909 -2.901580 -15.565162 -0.569906 -0.269860 0.294330 0.321770 -4.696584 -3.037317 -8.936429 39.813708 -26.743849 25.173620 -15.735560 -16.303888 3.892322 4.851200 -0.535119 -14.932173 -6.299389 0.707340 39.978350 -0.483120 -1.816070 -15.747170 10.300554 -45.411392 2.425619 -4.922517 -36.269101 1.356337 -179.206356 -58.863754 169.151173 -3.737779 3.583088 0.618650 -0.001990 0.116590 0.073460 -22.521735 39.124772 5.449743 -6.157926 26.757774 -7.049239 -157.608855 47.937853 -152.850635 1.917226 -1.916267 -0.178930 0.123800 0.247430 0.008900 
-1.860460 18.951800 -2.130100 -20.068803 19.174747 -34.496305 -15.165419 12.042295 0.667812 14.902558 -0.961952 6.314370 0.206555 6.978510 22.173954 0.128774 5.959753 2.561764 -0.088770 -0.298220 -0.156770 19.027766 -6.991215 7.339164 -26.684538 1.478868 -74.457930 14.144886 -41.058143 87.288100 -3.370746 -17.290338 -0.909959 -0.330120 0.261770 0.380900 -4.740334 -2.942108 -9.037360 45.180737 -28.441707 23.151504 -17.778541 -16.300221 2.100832 5.257927 -0.779029 -14.954603 -6.833532 0.539643 39.121291 -0.860030 -1.727910 -15.887870 11.021272 -45.112352 2.315056 -3.258164 -36.539973 1.749320 176.887673 -55.146470 176.879881 -3.792881 3.657633 0.589350 -0.012980 0.144420 0.081700 -24.144286 39.022185 4.689996 -6.268987 27.464401 -5.135898 -162.287865 41.496131 -160.133538 1.933956 -1.965152 -0.097400 0.023920 0.240010 0.046870 
-1.828760 19.127740 -2.208710 -19.418415 19.140174 -34.614864 -15.187882 11.926275 0.621638 14.322235 -1.081273 6.163826 -0.110826 6.896401 21.474502 0.194028 5.845110 2.641276 -0.202780 -0.453830 -0.224060 19.053574 -6.789572 7.531727 -28.710910 -0.980061 -75.366411 10.000844 -44.311071 96.833601 -3.711766 -18.496144 -1.079867 -0.448400 0.279190 0.338090 -4.714625 -3.112143 -9.120609 47.264149 -29.811661 24.138301 -18.438530 -16.290722 0.395551 5.363198 -1.962369 -15.822070 -9.545989 0.560109 38.914578 1.139600 -3.327450 -14.988230 11.192263 -44.486914 2.465028 -0.724890 -36.301103 1.651281 170.426783 -51.336074 -168.101482 -3.867436 3.500762 0.612030 -0.047020 0.119360 0.068370 -24.362585 39.819763 5.249051 -8.492897 27.553950 -4.392371 -160.190892 32.567424 -146.704345 2.047217 -1.863374 -0.125620 0.022050 0.267680 0.055050 
-1.815170 19.300460 -2.283270 -18.484358 18.483506 -34.885593 -15.207634 11.949540 0.599763 14.081742 -1.330116 4.646786 -0.794830 7.199745 23.105477 0.222272 5.951334 2.611553 -0.288220 -0.596200 -0.269930 19.035045 -6.691807 7.620763 -29.682160 -1.557472 -74.600903 5.900450 -46.523642 105.452067 -4.016553 -19.518887 -1.214093 -0.545600 0.292390 0.316510 -4.630261 -3.357756 -9.156870 48.381423 -31.170847 25.881277 -18.799630 -15.890746 -0.903350 5.912761 -3.294636 -16.693155 -12.628174 0.723875 39.104035 2.182970 -5.131990 -13.241570 11.036012 -44.940826 2.582430 0.498613 -35.550487 1.288124 169.137045 -48.612975 -163.019078 -3.908238 3.421484 0.643730 -0.068890 0.089140 0.047500 -25.038048 41.805442 5.078429 -10.800956 28.113816 -5.600031 -156.724015 25.488223 -126.389002 2.100854 -1.746411 -0.151620 0.009910 0.307460 0.047320 
-1.812610 19.456880 -2.361050 -17.195292 18.070376 -33.905955 -15.196592 11.877867 0.522590 13.288357 -1.624223 0.704294 -1.386648 7.539189 26.487280 0.345793 5.914784 2.577689 -0.270330 -0.541010 -0.299570 19.060239 -6.649643 7.735059 -31.494375 -1.488958 -73.192500 3.512164 -49.345286 111.765858 -4.355331 -20.431358 -1.292381 -0.589060 0.234400 0.323650 -4.669724 -3.321748 -9.187696 49.561326 -31.717065 26.401295 -20.063491 -15.337407 -3.032283 6.252100 -4.215333 -17.246469 -15.092056 1.251255 39.831653 4.221730 -6.365770 -13.081880 10.955260 -45.218233 2.325876 0.127352 -36.022034 1.289477 171.629463 -47.693797 -167.248653 -3.789342 3.525897 0.607190 -0.121460 0.142510 0.087220 -25.192102 43.224345 4.791338 -9.864393 28.968480 -5.588328 -155.991671 22.534028 -119.439855 2.164728 -1.747766 -0.055020 -0.063710 0.239900 0.109360 
-1.815070 19.585580 -2.451480 -17.425082 17.269746 -33.215191 -15.193622 11.929511 0.599942 14.076602 -2.634939 -5.264073 -1.395448 7.894592 31.477468 0.379124 6.187714 2.404678 -0.218360 -0.423230 -0.288210 19.001632 -6.697485 7.634930 -31.247446 -0.714584 -69.176265 3.427326 -53.411621 114.773964 -4.716594 -21.412031 -1.390760 -0.551300 0.197870 0.331320 -4.580851 -3.530292 -9.169461 50.438292 -31.779919 26.818386 -19.262055 -15.107067 -3.615009 6.291738 -3.601432 -16.941196 -14.495458 1.226252 41.521783 3.023630 -5.799950 -14.497740 11.242954 -46.026723 1.197330 -0.262700 -37.161454 0.956991 173.407646 -49.004301 -171.580390 -3.788432 3.572280 0.575610 -0.133650 0.194490 0.113930 -25.508781 43.662569 4.532961 -9.499800 28.827763 -5.004731 -158.217972 23.864134 -129.996934 2.166049 -1.810955 0.002850 -0.066580 0.192440 0.145680 
